<svg id="Слой_1" xmlns="http://www.w3.org/2000/svg" viewBox="0 0 437 490"><style>.st0{fill:#0089c0}</style><switch><g><path class="st0" d="M276.3 365.7c41.3-68.5 93.5-164.8 93.5-214.3C369.8 67.9 301.9 0 218.4 0S67 67.9 67 151.4c0 49.5 52.2 145.8 93.5 214.3-49 3.7-160.5 17-160.5 61.1C0 470.2 113.2 490 218.5 490c105.2 0 218.5-19.8 218.5-63.2-.1-44.1-111.7-57.4-160.7-61.1zM87.9 151.4c0-72 58.6-130.6 130.5-130.6 72 0 130.6 58.6 130.6 130.6 0 62.9-100.2 220.7-130.6 267.1C188 372.1 87.9 214.3 87.9 151.4zm130.5 317.7c-127.9 0-197.6-28-197.6-42.4 0-11.1 46-35 152-41.1 19.9 32.1 35 54.8 37 57.5 2.7 3.6 10.6 7.9 17.3 0 2.1-2.5 17.1-25.4 37-57.5 106 6.1 152 29.9 152 41.1-.1 14.5-69.8 42.4-197.7 42.4z"/><path class="st0" d="M284.3 151.4c0-36.4-29.5-65.9-65.9-65.9-36.4 0-65.9 29.5-65.9 65.9 0 36.4 29.5 65.9 65.9 65.9 36.4 0 65.9-29.5 65.9-65.9zm-111 0c0-24.9 20.2-45.1 45.1-45.1 24.9 0 45.1 20.2 45.1 45.1 0 24.9-20.2 45.1-45.1 45.1-24.9 0-45.1-20.2-45.1-45.1z"/></g></switch><script id="wappalyzerEnvDetection"/></svg>