<svg id="Layer_1" xmlns="http://www.w3.org/2000/svg" viewBox="0 0 512 512"><style>.st0{fill:#0089c0}</style><switch><g><path class="st0" d="M404.5 225.1H395v-90.6c0-4.7-3.8-8.4-8.4-8.4s-8.4 3.8-8.4 8.4v90.6h-44.5l16.2-89.1c.8-4.6-2.2-9-6.8-9.8-4.6-.8-9 2.2-9.8 6.8l-18 99c-.4 2.5.2 5 1.8 6.9 1.6 1.9 4 3 6.5 3h54.6v18.6c0 4.7 3.8 8.4 8.4 8.4s8.4-3.8 8.4-8.4v-18.6h9.6c4.7 0 8.4-3.8 8.4-8.4s-3.8-8.4-8.5-8.4zM296.5 252.1h-62.4c3.4-11.3 14-18.1 29.6-27.2 19.3-11.4 41.3-24.3 41.3-54.4 0-24.5-19.9-44.4-44.4-44.4s-44.4 19.9-44.4 44.4c0 4.7 3.8 8.4 8.4 8.4 4.7 0 8.4-3.8 8.4-8.4 0-15.2 12.4-27.6 27.6-27.6 15.2 0 27.6 12.4 27.6 27.6 0 20.5-15.3 29.5-32.9 39.8-18.3 10.8-39.1 23-39.1 50.2 0 4.7 3.8 8.4 8.4 8.4h72c4.7 0 8.4-3.8 8.4-8.4-.1-4.7-3.8-8.4-8.5-8.4z"/><path class="st0" d="M465.9 351.3l-16.4 3.3c39.9-38.8 62.5-91.8 62.5-148.1C512 92.6 419.4 0 305.5 0c-67.1 0-130.3 32.8-168.9 87.7-2.7 3.8-1.8 9.1 2 11.8 3.8 2.7 9.1 1.8 11.8-2 35.5-50.5 93.5-80.6 155.1-80.6 104.6 0 189.6 85.1 189.6 189.6 0 52.4-21.4 101.7-59.1 137.5l3.8-18.8c.9-4.6-2-9-6.6-9.9-4.6-.9-9 2-9.9 6.6l-9 45c-.6 2.8.3 5.6 2.3 7.6 1.6 1.6 3.8 2.5 6 2.5.6 0 1.1-.1 1.7-.2l45-9c4.6-.9 7.5-5.4 6.6-9.9-1-4.6-5.4-7.6-10-6.6z"/><path class="st0" d="M457.7 430.1c-1.5-11.3-8-21-17.9-26.7l-112.5-64.8c-14.2-8.2-32.2-5.8-43.8 5.8l-22.2 22.2c-5.5 5.5-14.2 6-20.3 1.1-17.4-14-34.6-29.5-51-45.9s-31.9-33.6-45.9-51c-4.9-6-4.4-14.8 1.1-20.3l22.2-22.2c11.6-11.6 14-29.6 5.8-43.8L108.5 72.2c-5.7-9.9-15.4-16.4-26.7-17.9-11.3-1.5-22.4 2.3-30.4 10.3L18.1 98C-5.6 121.6-6 164.7 16.8 219.2c21.8 52.1 62.5 109.5 114.5 161.5s109.4 92.7 161.5 114.5c26.7 11.2 50.7 16.8 71 16.8 21.1 0 38.1-6 50.1-18.1l33.4-33.4c8.1-8 11.9-19.1 10.4-30.4zM63.4 76.6c3.7-3.7 8.6-5.7 13.7-5.7.9 0 1.7.1 2.6.2 6 .8 11.2 4.3 14.3 9.6l64.8 112.5c4.4 7.6 3.1 17.2-3.1 23.4l-12.2 12.2-85-147.4 4.9-4.8zM402 482c-18.2 18.2-55.6 17.3-102.7-2.4-50.1-21-105.6-60.3-156.1-110.9-50.5-50.5-89.9-106-110.9-156.1-19.6-47-20.5-84.4-2.3-102.6l16.2-16.2 84.9 147.5c-9.4 11.6-9.6 28.3 0 40.2 14.4 17.9 30.3 35.5 47.1 52.4s34.5 32.7 52.4 47.1c11.7 9.4 28 9.4 39.6.4l148 84.5L402 482zm33.4-33.4l-4.8 4.8-147.8-84.3 12.7-12.7c6.2-6.2 15.8-7.5 23.4-3.1l112.5 64.8c5.3 3 8.8 8.2 9.6 14.3.7 6-1.3 11.9-5.6 16.2zM305.5 36c-4.7 0-8.4 3.8-8.4 8.4v18c0 4.7 3.8 8.4 8.4 8.4s8.4-3.8 8.4-8.4v-18c.1-4.6-3.7-8.4-8.4-8.4zM467.6 198h-18c-4.7 0-8.4 3.8-8.4 8.4s3.8 8.4 8.4 8.4h18c4.7 0 8.4-3.8 8.4-8.4 0-4.6-3.8-8.4-8.4-8.4zM390.8 58.9c-4-2.3-9.2-.9-11.5 3.1l-4.5 7.8c-2.3 4-.9 9.2 3.1 11.5 1.3.8 2.8 1.1 4.2 1.1 2.9 0 5.8-1.5 7.3-4.2l4.5-7.8c2.3-4.1.9-9.2-3.1-11.5zM236.3 69.7l-4.5-7.8c-2.3-4-7.5-5.4-11.5-3.1-4 2.3-5.4 7.5-3.1 11.5l4.5 7.8c1.6 2.7 4.4 4.2 7.3 4.2 1.4 0 2.9-.4 4.2-1.1 4-2.3 5.4-7.4 3.1-11.5z"/><path class="st0" d="M177.2 122.7l-7.8-4.5c-4-2.3-9.2-.9-11.5 3.1-2.3 4-.9 9.2 3.1 11.5l7.8 4.5c1.3.8 2.8 1.1 4.2 1.1 2.9 0 5.8-1.5 7.3-4.2 2.3-4 .9-9.2-3.1-11.5zM450.1 280.2l-7.8-4.5c-4-2.3-9.2-.9-11.5 3.1s-.9 9.2 3.1 11.5l7.8 4.5c1.3.8 2.8 1.1 4.2 1.1 2.9 0 5.8-1.5 7.3-4.2 2.3-4 .9-9.2-3.1-11.5zM453.1 121.2c-2.3-4-7.5-5.4-11.5-3.1l-7.8 4.5c-4 2.3-5.4 7.5-3.1 11.5 1.6 2.7 4.4 4.2 7.3 4.2 1.4 0 2.9-.4 4.2-1.1l7.8-4.5c4.1-2.3 5.5-7.4 3.1-11.5z"/></g></switch><script id="wappalyzerEnvDetection"/></svg>