<svg xmlns="http://www.w3.org/2000/svg" viewBox="0 0 390 388.1">
    <switch>
        <g>
            <path fill="#ff6700" d="M378 388.1H12c-6.6 0-12-5.4-12-12V12C0 5.4 5.4 0 12 0h366c6.6 0 12 5.4 12 12v364.1c0 6.6-5.4 12-12 12z"/>
            <g fill="#FFF">
                <path d="M42.9 94.7v198.8H91V136.8l72.7-.6h22c16.6 0 30 13.4 30 30l-.1 127 46.7-.2V124.7c0-16.6-13.4-30-30-30H42.9z"/>
                <path d="M127.7 171.4h49.2v120.5h-49.2zM299 94.7h48.1v198.8H299z"/>
            </g>
        </g>
    </switch>
</svg>
